<?xml version="1.0" encoding="UTF-8" standalone="no"?>
<!-- Created with Inkscape (http://www.inkscape.org/) -->

<svg
   xmlns:dc="http://purl.org/dc/elements/1.1/"
   xmlns:cc="http://creativecommons.org/ns#"
   xmlns:rdf="http://www.w3.org/1999/02/22-rdf-syntax-ns#"
   xmlns:svg="http://www.w3.org/2000/svg"
   xmlns="http://www.w3.org/2000/svg"
   xmlns:sodipodi="http://sodipodi.sourceforge.net/DTD/sodipodi-0.dtd"
   xmlns:inkscape="http://www.inkscape.org/namespaces/inkscape"
   width="744.09448819"
   height="1052.3622047"
   id="svg2"
   version="1.1"
   inkscape:version="0.48.5 r10040"
   sodipodi:docname="New document 1">
  <defs
     id="defs4" />
  <sodipodi:namedview
     id="base"
     pagecolor="#ffffff"
     bordercolor="#666666"
     borderopacity="1.0"
     inkscape:pageopacity="0.0"
     inkscape:pageshadow="2"
     inkscape:zoom="1"
     inkscape:cx="477.14286"
     inkscape:cy="590.55465"
     inkscape:document-units="px"
     inkscape:current-layer="layer1"
     showgrid="false"
     inkscape:window-width="1600"
     inkscape:window-height="838"
     inkscape:window-x="-8"
     inkscape:window-y="-8"
     inkscape:window-maximized="1" />
  <metadata
     id="metadata7">
    <rdf:RDF>
      <cc:Work
         rdf:about="">
        <dc:format>image/svg+xml</dc:format>
        <dc:type
           rdf:resource="http://purl.org/dc/dcmitype/StillImage" />
        <dc:title></dc:title>
      </cc:Work>
    </rdf:RDF>
  </metadata>
  <g
     inkscape:label="Layer 1"
     inkscape:groupmode="layer"
     id="layer1">
    <path
       style="fill:#ff0000;fill-opacity:1;stroke-width:5;stroke-miterlimit:4;stroke-dasharray:none"
       id="path2985"
       d="m 45.132546,266.84714 c 8.287802,-2.86417 16.769738,-6.84626 25.611008,-7.72625 1.61888,-0.16113 3.25288,0.0752 4.87932,0.11276 12.73915,3.25915 15.72281,15.78361 18.41047,27.0419 3.29097,15.06977 3.86394,30.53486 4.31391,45.89875 -0.0974,15.20467 -0.0698,30.31859 2.309816,45.35723 2.57901,11.546 7.44296,15.50711 16.94521,21.55468 10.96935,5.89073 22.68995,9.28804 34.92084,11.19763 6.0687,0.64041 11.1044,-0.25521 16.57823,-2.91069 2.41628,-1.17219 9.44891,-5.11021 7.09683,-3.814 -31.06459,17.11937 -34.76294,20.83266 -16.94009,6.9981 23.80722,-21.1758 45.06705,-45.41968 62.19091,-72.34203 3.244,-5.10026 6.11125,-10.43058 9.16688,-15.64587 11.44309,-21.00663 19.75813,-43.56896 23.95638,-67.11252 1.05209,-9.05289 0.65862,-4.62815 1.21518,-13.27108 0,0 37.36574,-18.73464 37.36574,-18.73464 l 0,0 c -0.58567,8.94925 -0.20304,4.36036 -1.17524,13.76437 -4.26072,24.26894 -13.6175,47.35931 -24.95071,69.15055 -3.05375,5.32144 -5.90364,10.76517 -9.16124,15.96431 -16.86908,26.92315 -37.89437,51.04453 -60.73975,73.02047 -21.65647,18.02519 -9.78079,8.9682 -53.34176,34.1245 -8.00871,4.625 -16.50158,6.35303 -25.60307,4.86136 -12.54805,-2.43056 -24.610546,-6.34472 -35.836836,-12.57992 -10.49254,-6.73628 -15.76599,-12.10229 -18.67027,-24.66853 -0.58051,-3.92208 -1.44515,-9.36394 -1.76339,-13.26026 -0.88754,-10.86645 0.0736,-21.79935 -0.55187,-32.67841 -0.39094,-15.07666 -0.85013,-30.25217 -4.04402,-45.05044 -2.27846,-9.23549 -4.169821,-21.05867 -15.657417,-21.99134 -10.417195,1.10955 -20.24133,4.94526 -29.893366,8.86174 0,0 33.368305,-26.12237 33.368305,-26.12237 z"
       inkscape:connector-curvature="0"
       inkscape:export-filename="C:\Users\Vitek\Downloads\logo.png"
       inkscape:export-xdpi="90"
       inkscape:export-ydpi="90" />
    <path
       style="fill:#ff0000;fill-opacity:1;stroke-width:5;stroke-miterlimit:4;stroke-dasharray:none"
       id="path2987"
       d="m 184.05429,280.84091 c -3.50655,17.06096 -6.53027,34.21808 -10.21791,51.24028 -5.71719,22.9837 -8.93606,46.5637 -15.42867,69.36303 -1.98024,6.9538 -4.30564,13.80464 -6.45847,20.70695 -10.54325,34.74617 -23.90678,68.58078 -41.37333,100.4227 -10.41257,17.31518 -21.360116,34.85878 -35.864766,49.12972 -2.76651,2.72193 -5.7853,5.17496 -8.67795,7.76244 -26.534383,19.89427 -56.1618707,37.57956 -88.57939,45.68618 -2.150846,0.41196 -4.301692,0.82392 -6.452539,1.23588 0,0 33.3173783,-25.24015 33.3173783,-25.24015 l 0,0 c 2.056979,-0.44135 4.113958,-0.88271 6.1709367,-1.32406 8.187982,-2.27522 16.101461,-4.85516 23.847599,-8.4133 3.218141,-1.47823 12.481161,-6.66525 9.506435,-4.74364 -53.888368,34.81085 -23.056348,13.36789 -15.764746,8.20509 2.91478,-2.4478 5.957145,-4.75125 8.744339,-7.34339 14.887061,-13.84524 26.091567,-31.21855 36.664277,-48.39811 18.28702,-31.52316 32.528026,-65.19792 42.897496,-100.15241 1.96312,-6.73726 4.06178,-13.43651 5.88936,-20.2118 6.11326,-22.66331 9.27081,-45.99053 14.59789,-68.83229 3.61941,-16.75948 6.52693,-33.70343 9.13498,-50.64387 0,0 38.04708,-18.44925 38.04708,-18.44925 z"
       inkscape:connector-curvature="0"
       inkscape:export-filename="C:\Users\Vitek\Downloads\logo.png"
       inkscape:export-xdpi="90"
       inkscape:export-ydpi="90" />
    <path
       style="fill:#d35f5f;fill-opacity:1;stroke-width:5;stroke-miterlimit:4;stroke-dasharray:none"
       id="path2991"
       d="m 461.74991,305.46995 c -0.67249,18.01999 -0.51979,36.06281 -0.5671,54.09312 -0.0916,18.97069 0.5103,37.9453 -0.30331,56.90202 -0.85164,18.0314 -4.28161,35.81261 -8.211,53.39189 -1.5827,9.21184 -4.87053,17.6826 -9.43815,25.76927 -3.70177,6.49432 -9.24661,11.46198 -14.94685,16.14794 -17.4998,13.35819 -36.92364,24.47967 -57.31817,32.78719 -6.72463,2.65743 -13.8913,2.83002 -21.00915,3.05023 -7.25014,0.61115 -14.05988,-0.33948 -20.60603,-3.47314 -3.67441,-2.18929 -6.87421,-4.64076 -9.60996,-7.9192 0,0 36.33963,-21.89 36.33963,-21.89 l 0,0 c 2.39257,2.68823 5.24846,4.7281 8.48835,6.32367 6.28104,2.30193 12.79127,2.48923 19.43169,1.98453 6.91496,-0.42418 13.75238,-1.27945 20.09916,-4.27184 2.35773,-1.07273 4.6702,-2.09894 6.98718,-3.26225 1.2133,-0.60918 4.77434,-2.58529 3.60471,-1.89598 -57.98985,34.17567 -37.57126,22.7705 -25.63973,14.35801 5.55979,-4.51477 11.64462,-8.75863 15.52851,-14.88307 5.14467,-7.50872 8.6813,-15.78899 10.44943,-24.75958 4.51239,-17.30977 8.10779,-35.01109 9.12213,-52.89591 0.43082,-18.92618 0.27566,-37.85884 0.38021,-56.78898 -0.0469,-17.83754 0.11227,-35.68845 -0.56709,-53.51523 0,0 37.78554,-19.25269 37.78554,-19.25269 z"
       inkscape:connector-curvature="0"
       inkscape:export-filename="C:\Users\Vitek\Downloads\logo.png"
       inkscape:export-xdpi="90"
       inkscape:export-ydpi="90" />
    <path
       style="fill:#d35f5f;fill-opacity:1;stroke-width:5;stroke-miterlimit:4;stroke-dasharray:none"
       id="path2993"
       d="m 318.9561,392.84983 c 6.99582,-14.82686 15.33998,-29.00649 24.95639,-42.27579 10.05881,-14.07047 24.49427,-23.22485 39.03523,-32.01068 103.4774,-59.5528 26.26716,-15.0954 16.23501,-9.3844 -2.78777,1.58699 5.52068,-3.26899 8.30688,-4.85872 21.55935,-12.30122 37.17513,-23.1226 58.81942,-30.86121 10.48441,-3.2219 22.09798,-5.34481 32.38072,-0.15202 1.94391,0.98168 3.66709,2.34997 5.50064,3.52495 17.60601,16.50234 29.48854,37.73169 40.92576,58.69336 7.8927,14.05997 13.43773,29.2422 19.08948,44.2949 4.02325,12.22514 5.38492,25.13303 5.44111,37.94813 0.003,8.64154 -2.16627,16.97127 -7.71745,23.65798 -26.21455,17.65648 -37.03902,25.35902 -63.67081,28.28849 -7.8048,0.76227 -15.64987,0.8876 -23.48548,0.86871 -3.43977,-0.01 -6.87955,-0.0192 -10.31932,-0.0281 0,0 34.23806,-24.85599 34.23806,-24.85599 l 0,0 c 3.42506,0.0165 6.85017,0.0367 10.27528,0.0193 7.67434,-0.0813 15.36311,-0.19441 22.99156,-1.13249 4.98029,-0.69509 9.86842,-1.46264 14.68967,-2.94644 14.45046,-4.44731 35.86997,-20.01438 -23.81576,16.03289 6.84197,-5.88318 8.94789,-11.90409 9.45032,-20.93676 0.43469,-12.35279 -0.98235,-24.81889 -4.62642,-36.65628 -5.28861,-15.00707 -10.78816,-30.02731 -18.13748,-44.16738 -10.65517,-20.57137 -22.07326,-41.57142 -40.45076,-56.32633 -1.6856,-0.90851 -3.28354,-2.00292 -5.05681,-2.72554 -9.93235,-4.04753 -20.78076,-0.9434 -30.43591,2.22543 -2.39409,0.9426 -4.82326,1.80055 -7.18226,2.82781 -2.58067,1.12377 -10.00731,5.12567 -7.62817,3.62154 8.90848,-5.63211 18.17567,-10.6758 27.2542,-16.02949 2.74802,-1.62052 -5.50309,3.22909 -8.26259,4.82997 -14.44345,8.37909 -28.87753,16.77445 -43.3462,25.10992 -9.0439,5.21023 18.04789,-10.48946 27.07183,-15.73419 -14.40024,8.45059 -29.11494,17.00319 -39.4838,30.44995 -9.77413,12.59326 -17.96926,26.31613 -24.61825,40.8164 0,0 -38.42409,17.87207 -38.42409,17.87207 z"
       inkscape:connector-curvature="0"
       inkscape:export-filename="C:\Users\Vitek\Downloads\logo.png"
       inkscape:export-xdpi="90"
       inkscape:export-ydpi="90" />
    <path
       style="fill:#c8b7b7;fill-opacity:1;stroke-width:5;stroke-miterlimit:4;stroke-dasharray:none"
       id="path2997"
       d="m 720.61661,605.43959 c 19.52519,-26.24083 32.56965,-56.19363 44.89346,-86.2703 7.98237,-20.78085 13.95598,-42.22375 20.30409,-63.53132 2.30996,-7.75345 4.47874,-15.51335 7.85896,-22.87199 12.57617,-7.14009 24.40902,-15.78712 37.72849,-21.42028 1.54839,-0.65486 1.76532,2.90029 2.26934,4.50414 0.90229,2.8712 0.59008,10.84531 0.58577,12.72641 -0.0159,6.9464 -0.0768,13.89262 -0.11543,20.83893 0.43858,12.93104 -0.77641,25.95526 0.22223,38.8727 0.54977,7.11124 1.4821,10.31136 2.9781,17.40306 3.26403,10.25332 6.43915,23.22107 16.98879,28.57653 1.42247,0.7221 3.02864,1.00334 4.54296,1.50501 7.43318,1.50011 15.22815,0.1245 21.8707,-3.45536 0.96249,-0.48973 1.92498,-0.97947 2.88747,-1.4692 0,0 -33.10199,26.37383 -33.10199,26.37383 l 0,0 c -0.98975,0.43972 -1.9795,0.87945 -2.96926,1.31917 -7.78721,2.56296 -15.71223,3.4082 -23.60233,0.57788 -1.69555,-0.81557 -3.50104,-1.43385 -5.08665,-2.44671 -10.768,-6.87836 -14.44655,-19.94643 -17.90543,-31.42281 -1.86424,-7.83771 -2.74879,-10.17522 -3.39899,-18.06413 -1.07158,-13.00157 0.40501,-26.10296 -0.0355,-39.11849 -0.0324,-6.9643 -0.005,-13.57048 -0.25352,-20.5215 -0.0903,-2.53029 -0.24836,-5.05795 -0.41674,-7.58424 -0.0769,-1.15346 -0.44739,-2.3045 -0.31895,-3.45337 0.0274,-0.24535 0.44642,0.21097 0.66964,0.31646 11.69814,-7.0333 23.39629,-14.06659 35.09443,-21.09989 -5.29511,6.54566 -7.84616,15.08473 -10.54057,22.93088 -7.32099,21.31876 -13.11204,43.14062 -21.08023,64.24435 -7.88394,20.25482 -15.80036,40.4228 -25.90203,59.70849 -5.10122,9.73904 -6.99008,11.96958 -12.2106,20.62149 -1.06322,1.76204 -2.05398,3.5668 -3.08097,5.3502 0,0 -38.87521,16.86006 -38.87521,16.86006 z"
       inkscape:connector-curvature="0"
       inkscape:export-filename="C:\Users\Vitek\Downloads\logo.png"
       inkscape:export-xdpi="90"
       inkscape:export-ydpi="90" />
    <path
       style="fill:#c8b7b7;fill-opacity:1;stroke-width:5;stroke-miterlimit:4;stroke-dasharray:none"
       id="path2999"
       d="m 822.36708,344.14749 c 11.43864,-0.16699 22.86064,0.9803 32.68009,7.17628 7.20023,5.78996 7.53437,14.04687 7.79331,22.61975 0.49758,10.67995 -0.9277,21.34051 -6.27729,30.6771 -11.21347,13.8404 -32.04841,20.9474 -45.83172,28.10378 -15.73894,6.5535 -19.54633,-3.89016 -25.85157,-6.17149 -6.73727,-2.81028 -10.25074,-8.27603 -12.30281,-14.99057 -14.73856,-23.22993 32.55325,-40.9676 52.71426,-43.98746 1.32709,-0.11941 2.65419,-0.23881 3.98128,-0.35822 l -33.87145,25.19016 0,0 c -1.27473,0.17158 -2.54946,0.34316 -3.82419,0.51474 -2.96132,0.58458 -5.09799,0.88638 -7.95274,1.93856 -1.26598,0.4666 -4.84228,2.36754 -3.68641,1.67156 59.34341,-35.7324 38.20234,-23.83215 26.72009,-14.83669 -5.36377,4.59934 -6.97307,9.79018 -5.85507,16.78527 1.41171,5.49465 4.07133,9.66791 9.89369,11.1705 6.76222,0.79186 13.64005,0.19847 20.4099,-0.25313 3.17716,-0.40915 5.41331,-0.5972 8.53755,-1.41218 1.42703,-0.37225 5.45747,-2.146 4.21075,-1.35816 -10.58988,6.69205 -21.61234,12.67481 -32.34429,19.13657 -1.11433,0.67094 2.40124,-1.03709 3.48314,-1.75915 1.07054,-0.71448 1.95107,-1.67913 2.9266,-2.5187 6.46457,-7.96548 19.78559,-27.28551 19.33508,-37.3564 -0.34686,-6.92284 -2.56455,-8.89062 -8.6361,-13.48135 -9.57203,-5.3851 -29.61614,-2.1 -40.37885,-1.70623 z"
       inkscape:connector-curvature="0"
       sodipodi:nodetypes="ccccccccccccssccccssssccccc"
       inkscape:export-filename="C:\Users\Vitek\Downloads\logo.png"
       inkscape:export-xdpi="90"
       inkscape:export-ydpi="90" />
    <path
       style="fill:#a02c2c;fill-opacity:1;stroke-width:5;stroke-miterlimit:4;stroke-dasharray:none"
       id="path3001"
       d="m 211.31695,454.18459 c 11.49083,0.22053 22.98527,0.17358 34.47775,0.16983 11.52057,0.009 23.04024,-0.0954 34.56049,0.007 13.93096,-0.0876 27.81955,-0.10847 41.71388,0.93918 9.54335,0.83939 18.56769,3.46266 27.34185,7.15053 0.90361,0.55312 1.80723,1.10625 2.71084,1.65938 0,0 -35.53668,23.08491 -35.53668,23.08491 l 0,0 c -0.78585,-0.41911 -1.57169,-0.83822 -2.35754,-1.25733 -8.35289,-3.49271 -17.11559,-5.59444 -26.16107,-6.31486 -13.82959,-1.00358 -27.67617,-0.74423 -41.5344,-0.68787 -11.52625,0.0995 -23.05185,-6.3e-4 -34.57841,0.007 -11.64834,-0.004 -23.29848,-0.0474 -34.94526,0.16983 0,0 34.30855,-24.92662 34.30855,-24.92662 z"
       inkscape:connector-curvature="0"
       inkscape:export-filename="C:\Users\Vitek\Downloads\logo.png"
       inkscape:export-xdpi="90"
       inkscape:export-ydpi="90" />
    <path
       style="fill:#916f6f;fill-opacity:1;stroke-width:5;stroke-miterlimit:4;stroke-dasharray:none"
       id="path3005"
       d="m 619.11383,306.5182 c -1.81724,0.93784 -7.09463,4.06989 -5.29728,3.0945 53.40887,-31.3167 19.06371,-12.25846 11.71188,23.59769 -3.23152,13.99665 0.37082,27.40473 4.36806,40.80223 3.36657,10.34193 8.08027,20.19217 13.14977,29.79458 5.11313,8.2768 12.14152,14.94478 19.19655,21.5248 8.33625,7.2269 17.86042,12.83045 26.33571,19.8765 9.56744,8.20512 15.38583,18.88056 20.03258,30.36826 3.4791,8.6521 5.81824,17.46979 4.92403,26.80631 -1.93683,7.17641 -4.1637,14.31334 -6.72605,21.29688 -2.40504,7.0866 -5.01579,14.09347 -8.54181,20.70318 -2.76403,5.03939 -6.62715,9.24428 -10.55642,13.38212 -12.76743,11.13783 -31.15929,19.07584 -44.18802,26.46375 -11.1591,6.32775 44.55598,-25.45056 33.35491,-19.19743 -43.68148,24.38571 -24.88329,16.78028 -42.11123,23.5991 -6.2635,2.12051 -12.9394,2.19679 -19.48205,2.38014 -6.88589,0.0632 -13.77217,0.0359 -20.65821,0.0201 -6.30279,0.66225 -11.65799,-1.11265 -17.03951,-4.21046 -4.24536,-3.03086 -7.70075,-6.90117 -11.44537,-10.48259 -3.9867,-4.26311 -8.23555,-8.17921 -11.76553,-12.84691 -5.35816,-6.3233 -9.88958,-13.29807 -14.74911,-20.01172 -6.32349,-7.62281 -11.42201,-15.97097 -15.99938,-24.72373 -2.54844,-4.50217 -5.28783,-8.88311 -7.97969,-13.29937 l 36.51159,-21.1923 0,0 c 2.73781,4.50716 5.59236,8.92839 8.0182,13.61893 4.37963,8.60694 9.51418,16.69128 15.6016,24.2051 4.88928,6.64075 9.6536,13.38885 14.91153,19.73904 3.57388,4.35266 7.71064,8.171 11.56783,12.26853 3.46188,3.31336 6.68357,6.94447 10.80404,9.47891 5.11523,2.38668 10.17344,2.9911 15.82184,2.58586 6.84345,0.0346 13.69128,0.11351 20.531,-0.16262 6.33309,-0.34721 12.72262,-0.85412 18.52225,-3.67263 0.93122,-0.47025 3.6937,-1.93819 2.79364,-1.41075 -11.08116,6.49359 -44.5152,25.64559 -33.34179,19.31204 127.42977,-72.23241 -26.53183,14.2933 11.19363,-6.35078 4.14562,-3.59887 7.92544,-7.79782 10.8991,-12.40069 4.38632,-5.90816 6.68838,-13.08073 9.08754,-19.96484 2.45816,-6.79796 4.48823,-13.71478 7.00144,-20.49649 1.86918,-8.60951 -0.48444,-16.9045 -3.50739,-25.01711 -4.35198,-10.86521 -9.77829,-20.93288 -18.97348,-28.5417 -8.68292,-6.9309 -18.32806,-12.58961 -26.58064,-20.075 -7.3213,-6.94648 -14.77213,-13.97618 -20.08153,-22.64957 -5.06425,-9.92298 -9.58625,-20.16065 -13.08591,-30.74423 -4.09296,-13.87851 -8.43367,-27.94666 -5.41174,-42.4996 2.46749,-13.65593 6.32008,-26.95056 14.62158,-38.32524 13.15053,-17.41198 2.89639,-5.10136 43.86951,-29.78607 8.26255,-4.97786 17.91611,-6.98146 27.4327,-7.37992 136.4095,60.28406 -23.75522,14.76587 -54.74037,30.5232 z"
       inkscape:connector-curvature="0"
       sodipodi:nodetypes="ccccccccccccsscccccccccccccccccccsscccccccccccscc"
       inkscape:export-filename="C:\Users\Vitek\Downloads\logo.png"
       inkscape:export-xdpi="90"
       inkscape:export-ydpi="90" />
  </g>
</svg>
